<svg width="127" height="27" viewBox="0 0 127 27" fill="none" xmlns="http://www.w3.org/2000/svg">
<path d="M1.40625 20.6406C1.76042 20.8073 2.11458 20.974 2.46875 21.1406C2.83333 21.2969 3.23438 21.4531 3.67188 21.6094C3.74479 21.4115 3.78125 21.099 3.78125 20.6719C3.78125 20.3802 3.77604 20.1562 3.76562 20C3.72396 19.1979 3.64062 17.9792 3.51562 16.3438C3.39062 14.6354 3.29688 13.2448 3.23438 12.1719C3.17188 11.099 3.14062 10.0833 3.14062 9.125C3.14062 8.83333 3.15104 8.42708 3.17188 7.90625L3.21875 7.17188L0.890625 6.84375C0.755208 6.45833 0.651042 6.03646 0.578125 5.57812C0.505208 5.10938 0.46875 4.65625 0.46875 4.21875C0.46875 3.88542 0.494792 3.52083 0.546875 3.125C1.79688 2.64583 3.36979 2.30208 5.26562 2.09375C7.16146 1.88542 9.11979 1.78125 11.1406 1.78125C13.1823 1.78125 14.5885 1.86979 15.3594 2.04688L15.375 2.03125C15.9375 2.36458 16.4271 2.71354 16.8438 3.07812C17.2708 3.43229 17.6771 3.86458 18.0625 4.375C18.0625 5.09375 17.974 5.92188 17.7969 6.85938C17.6302 7.78646 17.4115 8.64062 17.1406 9.42188C16.8802 10.2031 16.6094 10.7552 16.3281 11.0781C16.0781 11.1927 15.8073 11.2812 15.5156 11.3438C15.224 11.3958 14.8698 11.4219 14.4531 11.4219C14.0156 11.4219 13.6823 11.3906 13.4531 11.3281C13.2344 11.2656 12.9948 11.1615 12.7344 11.0156L12.2031 7.09375C11.8594 7.02083 11.4427 6.98438 10.9531 6.98438C10.5156 6.98438 10.0521 7.01042 9.5625 7.0625C9.53125 7.55208 9.49479 8.35938 9.45312 9.48438C9.43229 10.3073 9.40104 11.1042 9.35938 11.875L9.23438 14.5938C11.776 14.2812 13.8958 13.9531 15.5938 13.6094C16.0104 14.224 16.2188 15.0156 16.2188 15.9844C16.2188 16.6198 16.1354 17.2292 15.9688 17.8125C15.8021 18.3958 15.6198 18.7969 15.4219 19.0156C15.099 19.0677 14.6719 19.0938 14.1406 19.0938C13.349 19.0938 12.5 19.0208 11.5938 18.875C10.6979 18.7188 9.84375 18.5052 9.03125 18.2344C8.96875 19.1615 8.89062 20.0573 8.79688 20.9219C8.70312 21.7448 8.57292 22.4635 8.40625 23.0781C8.25 23.6823 8.00521 24.2083 7.67188 24.6562C7.24479 25.2188 6.69792 25.6354 6.03125 25.9062C5.375 26.1771 4.66667 26.3125 3.90625 26.3125C3.20833 26.3125 2.52083 26.151 1.84375 25.8281C1.17708 25.5052 0.630208 24.9583 0.203125 24.1875C0.213542 23.5104 0.296875 22.901 0.453125 22.3594C0.619792 21.8177 0.9375 21.2448 1.40625 20.6406ZM18.2031 16.7656C18.2031 14.8802 18.5052 13.2448 19.1094 11.8594C19.7135 10.474 20.6406 9.40104 21.8906 8.64062C23.1406 7.86979 24.7083 7.48438 26.5938 7.48438C28.6771 7.48438 30.3125 7.875 31.5 8.65625C32.6875 9.42708 33.5156 10.5 33.9844 11.875C34.4635 13.25 34.7031 14.9323 34.7031 16.9219C34.7031 18.724 34.3854 20.3333 33.75 21.75C33.125 23.1562 32.1771 24.2708 30.9062 25.0938C29.6458 25.9062 28.099 26.3125 26.2656 26.3125C23.4323 26.3125 21.3802 25.4427 20.1094 23.7031C18.8385 21.9531 18.2031 19.6406 18.2031 16.7656ZM26.9062 21.7344C27.4375 21.7344 27.7604 21.6927 27.875 21.6094C28.1146 21.1927 28.2969 20.6042 28.4219 19.8438C28.5469 19.0833 28.6094 18.2604 28.6094 17.375C28.6094 16.5625 28.5573 15.8021 28.4531 15.0938C28.349 14.375 28.2031 13.8125 28.0156 13.4062C27.901 13.2708 27.6719 13.1719 27.3281 13.1094C26.9844 13.0365 26.6094 13 26.2031 13C25.6719 13 25.3073 13.0573 25.1094 13.1719C24.5885 14.0677 24.3281 15.3125 24.3281 16.9062C24.3281 17.6562 24.3854 18.4219 24.5 19.2031C24.6146 19.9844 24.7604 20.6927 24.9375 21.3281C25.0625 21.4635 25.3177 21.5677 25.7031 21.6406C26.0885 21.7031 26.4896 21.7344 26.9062 21.7344ZM36.7969 16.7656C36.7969 14.8802 37.099 13.2448 37.7031 11.8594C38.3073 10.474 39.2344 9.40104 40.4844 8.64062C41.7344 7.86979 43.3021 7.48438 45.1875 7.48438C47.2708 7.48438 48.9062 7.875 50.0938 8.65625C51.2812 9.42708 52.1094 10.5 52.5781 11.875C53.0573 13.25 53.2969 14.9323 53.2969 16.9219C53.2969 18.724 52.9792 20.3333 52.3438 21.75C51.7188 23.1562 50.7708 24.2708 49.5 25.0938C48.2396 25.9062 46.6927 26.3125 44.8594 26.3125C42.026 26.3125 39.974 25.4427 38.7031 23.7031C37.4323 21.9531 36.7969 19.6406 36.7969 16.7656ZM45.5 21.7344C46.0312 21.7344 46.3542 21.6927 46.4688 21.6094C46.7083 21.1927 46.8906 20.6042 47.0156 19.8438C47.1406 19.0833 47.2031 18.2604 47.2031 17.375C47.2031 16.5625 47.151 15.8021 47.0469 15.0938C46.9427 14.375 46.7969 13.8125 46.6094 13.4062C46.4948 13.2708 46.2656 13.1719 45.9219 13.1094C45.5781 13.0365 45.2031 13 44.7969 13C44.2656 13 43.901 13.0573 43.7031 13.1719C43.1823 14.0677 42.9219 15.3125 42.9219 16.9062C42.9219 17.6562 42.9792 18.4219 43.0938 19.2031C43.2083 19.9844 43.3542 20.6927 43.5312 21.3281C43.6562 21.4635 43.9115 21.5677 44.2969 21.6406C44.6823 21.7031 45.0833 21.7344 45.5 21.7344ZM55.4688 16.9844C55.4688 15.401 55.6875 13.8854 56.125 12.4375C56.5729 10.9896 57.2708 9.80208 58.2188 8.875C59.1771 7.94792 60.3802 7.48438 61.8281 7.48438C63.4531 7.48438 65.0052 8 66.4844 9.03125L66.7344 8.875C66.7031 7.65625 66.5521 6.55208 66.2812 5.5625L63.1094 5.35938C62.9635 5.17188 62.849 4.89583 62.7656 4.53125C62.6823 4.15625 62.6406 3.77083 62.6406 3.375C62.6406 2.84375 62.7031 2.38542 62.8281 2C63.4531 1.55208 64.2552 1.21354 65.2344 0.984375C66.2135 0.755208 67.1927 0.640625 68.1719 0.640625C69.2552 0.640625 70.0729 0.869792 70.625 1.32812C71.1771 1.77604 71.5469 2.45833 71.7344 3.375C71.9323 4.28125 72.0312 5.54167 72.0312 7.15625C72.0312 9.28125 71.9427 11.6927 71.7656 14.3906C71.5885 17.0885 71.3594 19.2917 71.0781 21L71.0156 21.2656L72.8281 20.4844C73.1302 20.8073 73.3958 21.2031 73.625 21.6719C73.8646 22.1302 74.0156 22.6615 74.0781 23.2656C73.9323 23.5781 73.6146 23.9792 73.125 24.4688C72.6354 24.9479 72.0365 25.375 71.3281 25.75C70.6198 26.125 69.8802 26.3125 69.1094 26.3125C68.2448 26.3125 67.5781 26.0573 67.1094 25.5469C66.651 25.026 66.4219 24.3646 66.4219 23.5625C66.4219 23.3542 66.474 22.9271 66.5781 22.2812C66.6927 21.6354 66.7865 21.1875 66.8594 20.9375L66.3906 20.7969C65.8594 22.6615 65.1562 24.0469 64.2812 24.9531C63.4062 25.8594 62.3229 26.3125 61.0312 26.3125C59.6458 26.3125 58.5365 25.8542 57.7031 24.9375C56.8802 24.0104 56.3021 22.849 55.9688 21.4531C55.6354 20.0573 55.4688 18.5677 55.4688 16.9844ZM66.1875 16.7031C66.25 16.3281 66.2812 15.8906 66.2812 15.3906C66.2812 15.0677 66.2656 14.7604 66.2344 14.4688C66.2135 14.1771 66.1875 13.9688 66.1562 13.8438C65.7396 13.5417 65.2656 13.3281 64.7344 13.2031C64.2135 13.0781 63.7344 13.0156 63.2969 13.0156C63.026 13.0156 62.7344 13.0417 62.4219 13.0938C62.2135 13.3021 62.0469 13.7552 61.9219 14.4531C61.7969 15.1406 61.7344 15.9167 61.7344 16.7812C61.7344 17.7083 61.7969 18.6094 61.9219 19.4844C62.0573 20.349 62.2448 21.026 62.4844 21.5156C62.651 21.5156 62.974 21.2604 63.4531 20.75C63.9427 20.2292 64.4479 19.5938 64.9688 18.8438C65.4896 18.0833 65.8958 17.3698 66.1875 16.7031Z" fill="#FF7710"/>
<path d="M75.1406 16.7656C75.1406 14.8802 75.4427 13.2448 76.0469 11.8594C76.651 10.474 77.5781 9.40104 78.8281 8.64062C80.0781 7.86979 81.6458 7.48438 83.5312 7.48438C85.6146 7.48438 87.25 7.875 88.4375 8.65625C89.625 9.42708 90.4531 10.5 90.9219 11.875C91.401 13.25 91.6406 14.9323 91.6406 16.9219C91.6406 18.724 91.3229 20.3333 90.6875 21.75C90.0625 23.1562 89.1146 24.2708 87.8438 25.0938C86.5833 25.9062 85.0365 26.3125 83.2031 26.3125C80.3698 26.3125 78.3177 25.4427 77.0469 23.7031C75.776 21.9531 75.1406 19.6406 75.1406 16.7656ZM83.8438 21.7344C84.375 21.7344 84.6979 21.6927 84.8125 21.6094C85.0521 21.1927 85.2344 20.6042 85.3594 19.8438C85.4844 19.0833 85.5469 18.2604 85.5469 17.375C85.5469 16.5625 85.4948 15.8021 85.3906 15.0938C85.2865 14.375 85.1406 13.8125 84.9531 13.4062C84.8385 13.2708 84.6094 13.1719 84.2656 13.1094C83.9219 13.0365 83.5469 13 83.1406 13C82.6094 13 82.2448 13.0573 82.0469 13.1719C81.526 14.0677 81.2656 15.3125 81.2656 16.9062C81.2656 17.6562 81.3229 18.4219 81.4375 19.2031C81.5521 19.9844 81.6979 20.6927 81.875 21.3281C82 21.4635 82.2552 21.5677 82.6406 21.6406C83.026 21.7031 83.4271 21.7344 83.8438 21.7344ZM95.3281 21.8125C95.3281 21.3646 95.3385 20.2656 95.3594 18.5156C95.3906 15.0781 95.4062 13.1979 95.4062 12.875L93.9688 12.6406C93.7708 12.0469 93.6302 11.4896 93.5469 10.9688C93.4635 10.4479 93.4219 9.92188 93.4219 9.39062C93.4219 9.17188 93.4271 9.00521 93.4375 8.89062C93.6146 8.73438 93.8906 8.54688 94.2656 8.32812C94.6406 8.10938 95.0833 7.91667 95.5938 7.75C96.1042 7.57292 96.625 7.48438 97.1562 7.48438C98.3958 7.48438 99.2917 7.76042 99.8438 8.3125C100.406 8.86458 100.688 9.67188 100.688 10.7344C100.688 11.3802 100.604 12.2083 100.438 13.2188C100.281 14.2188 100.12 14.9323 99.9531 15.3594L100.516 15.4531L101.453 11.9219C101.87 10.3281 102.391 9.19271 103.016 8.51562C103.641 7.82812 104.344 7.48438 105.125 7.48438C105.635 7.48438 106.141 7.5625 106.641 7.71875C107.151 7.875 107.542 8.06771 107.812 8.29688C108.104 8.94271 108.25 9.80208 108.25 10.875C108.25 11.625 108.177 12.3698 108.031 13.1094C107.885 13.8385 107.698 14.4271 107.469 14.875L104.188 14.4375C103.521 15.1458 102.812 16.1302 102.062 17.3906C101.312 18.6406 100.714 19.7917 100.266 20.8438L100.25 21.6562L103.281 20.9375C103.792 21.7188 104.089 22.6458 104.172 23.7188C104.172 23.7812 103.938 24.0365 103.469 24.4844C103 24.9323 102.38 25.349 101.609 25.7344C100.849 26.1094 99.974 26.2969 98.9844 26.2969C97.9635 26.2969 97.1094 26.026 96.4219 25.4844C95.7448 24.9323 95.3854 24.0052 95.3438 22.7031C95.3333 22.5469 95.3281 22.25 95.3281 21.8125ZM114.422 15.7031C115.036 15.7031 115.714 15.7656 116.453 15.8906C117.203 16.0156 117.891 16.1667 118.516 16.3438V15.8594C118.516 15.5365 118.505 15.1771 118.484 14.7812C118.474 14.3854 118.453 14.125 118.422 14C118.328 13.8229 118.057 13.6406 117.609 13.4531C117.172 13.2656 116.453 13.1719 115.453 13.1719C114.839 13.1719 114.203 13.25 113.547 13.4062C112.901 13.5521 112.182 13.75 111.391 14C110.964 13.2917 110.62 12.6198 110.359 11.9844C110.109 11.3385 109.984 10.6927 109.984 10.0469C109.984 9.84896 110 9.65104 110.031 9.45312C111.719 8.14062 113.901 7.48438 116.578 7.48438C118.057 7.48438 119.37 7.65104 120.516 7.98438C121.661 8.31771 122.604 8.96354 123.344 9.92188C124.083 10.8802 124.453 12.2396 124.453 14C124.453 15.7188 124.25 17.3854 123.844 19C123.448 20.6042 123.245 21.4219 123.234 21.4531L125.5 20.4844C125.802 20.8073 126.068 21.2031 126.297 21.6719C126.536 22.1302 126.688 22.6615 126.75 23.2656C126.604 23.5781 126.286 23.9792 125.797 24.4688C125.307 24.9479 124.708 25.375 124 25.75C123.292 26.125 122.552 26.3125 121.781 26.3125C120.917 26.3125 120.26 26.0573 119.812 25.5469C119.375 25.0365 119.156 24.375 119.156 23.5625C119.156 23.1042 119.224 22.6406 119.359 22.1719L118.891 22.0312C118.599 23.6771 117.979 24.8021 117.031 25.4062C116.083 26.0104 115.036 26.3125 113.891 26.3125C113.141 26.3125 112.417 26.1042 111.719 25.6875C111.021 25.2604 110.453 24.6458 110.016 23.8438C109.578 23.0312 109.359 22.0833 109.359 21C109.359 19.2708 109.792 17.9583 110.656 17.0625C111.521 16.1562 112.776 15.7031 114.422 15.7031ZM116.203 21.6562C116.464 21.6042 116.771 21.4583 117.125 21.2188C117.49 20.9792 117.812 20.6927 118.094 20.3594C118.375 20.026 118.542 19.7083 118.594 19.4062L118.5 19.0312C117.948 18.9583 117.359 18.9219 116.734 18.9219C116.203 18.9219 115.839 18.9635 115.641 19.0469C115.307 19.4219 115.141 19.8385 115.141 20.2969C115.141 20.6302 115.224 20.9323 115.391 21.2031C115.568 21.474 115.839 21.625 116.203 21.6562Z" fill="black"/>
</svg>
